<svg xmlns="http://www.w3.org/2000/svg" width="380" height="161.146" preserveAspectRatio="none" viewBox="371 265.427 380 161.146">
  <svg width="368.452" height="135.774" x="373.974" y="291.129" preserveAspectRatio="none" transform="rotate(-4 373.974 291.13)" viewBox=".99 -28.04 76.09 28.04">
    <path fill="#71db77" d="M17.48-7.88q-.4 3.8-2.82 5.84T8.72 0H1.4q-.2 0-.32-.14T1-.48l3.32-27.04q.04-.2.18-.34.14-.14.34-.14h6.48q3.52 0 5.46 1.58t1.94 4.7q0 .4-.08 1.36-.48 3.92-3.36 5.76-.16.12-.04.24 2.32 1.84 2.32 5.24 0 .36-.08 1.24ZM9.44-23.16q-.2 0-.2.2l-.8 6.28q0 .2.16.2H10q1.52 0 2.38-1.08.86-1.08.86-3 0-1.28-.62-1.94-.62-.66-1.78-.66h-1.4ZM8.92-4.88q1.28 0 2.12-.96.84-.96 1.08-2.72.04-.28.04-.84 0-1.4-.6-2.2-.6-.8-1.68-.8H8.12q-.16 0-.24.2l-.84 7.12q-.08.2.16.2h1.72ZM37.8-23.64q-.04.2-.18.34-.14.14-.34.14h-8.12q-.2 0-.2.2l-.8 6.32q0 .2.16.2H33q.2 0 .32.14t.08.34l-.48 3.88q-.04.2-.18.34-.14.14-.34.14h-4.64q-.24 0-.24.2l-.76 6.36q-.08.2.16.2H35q.2 0 .34.14t.1.34l-.48 3.88q-.04.2-.18.34-.14.14-.34.14H21.12q-.2 0-.32-.14t-.08-.34l3.32-27.04q.04-.2.18-.34.14-.14.34-.14h13.32q.2 0 .32.14t.08.34l-.48 3.88ZM57.76-28q.2 0 .32.14t.08.34l-.48 3.88q-.04.2-.18.34-.14.14-.34.14h-4.88q-.08 0-.14.06-.06.06-.06.14L49.32-.48q-.04.2-.18.34Q49 0 48.8 0h-4.56q-.2 0-.32-.14t-.08-.34l2.76-22.48q.08-.2-.16-.2H41.8q-.44 0-.44-.48l.48-3.88q.04-.2.18-.34.14-.14.34-.14h15.4ZM69.72 0q-.4 0-.48-.4L67.6-11.44q-.08-.16-.2-.16h-1.28q-.24 0-.24.2L64.56-.48q-.04.2-.2.34T64 0h-4.52q-.2 0-.32-.14t-.08-.34l3.32-27.08q.04-.2.18-.34.14-.14.34-.14h7.84q2.92 0 4.62 1.9 1.7 1.9 1.7 5.06 0 .96-.08 1.48-.28 2.32-1.36 4.14-1.08 1.82-2.8 2.86-.08.04-.12.1-.04.06 0 .14l2.12 11.8v.08q0 .2-.14.34t-.34.14h-4.64Zm-2.2-23.16q-.2 0-.2.2l-.84 6.8q-.08.2.16.2h1.76q1.32 0 2.24-1.18.92-1.18.92-3.14 0-1.36-.62-2.12t-1.66-.76h-1.76Z"/>
  </svg>
  <svg width="363.548" height="136.117" x="371" y="290.787" preserveAspectRatio="none" transform="rotate(-4 371 290.787)" viewBox=".99 -28.04 74.89 28.04">
    <path fill="#677d5d" d="M17.48-7.88q-.4 3.8-2.82 5.84T8.72 0H1.4q-.2 0-.32-.14T1-.48l3.32-27.04q.04-.2.18-.34.14-.14.34-.14h6.48q3.52 0 5.46 1.58t1.94 4.7q0 .4-.08 1.36-.48 3.92-3.36 5.76-.16.12-.04.24 2.32 1.84 2.32 5.24 0 .36-.08 1.24ZM9.44-23.16q-.2 0-.2.2l-.8 6.28q0 .2.16.2H10q1.52 0 2.38-1.08.86-1.08.86-3 0-1.28-.62-1.94-.62-.66-1.78-.66h-1.4ZM8.92-4.88q1.28 0 2.12-.96.84-.96 1.08-2.72.04-.28.04-.84 0-1.4-.6-2.2-.6-.8-1.68-.8H8.12q-.16 0-.24.2l-.84 7.12q-.08.2.16.2h1.72ZM37.4-23.64q-.04.2-.18.34-.14.14-.34.14h-8.12q-.2 0-.2.2l-.8 6.32q0 .2.16.2h4.68q.2 0 .32.14t.08.34l-.48 3.88q-.04.2-.18.34-.14.14-.34.14h-4.64q-.24 0-.24.2l-.76 6.36q-.08.2.16.2h8.08q.2 0 .34.14t.1.34l-.48 3.88q-.04.2-.18.34-.14.14-.34.14H20.72q-.2 0-.32-.14t-.08-.34l3.32-27.04q.04-.2.18-.34.14-.14.34-.14h13.32q.2 0 .32.14t.08.34l-.48 3.88ZM56.96-28q.2 0 .32.14t.08.34l-.48 3.88q-.04.2-.18.34-.14.14-.34.14h-4.88q-.08 0-.14.06-.06.06-.06.14L48.52-.48q-.04.2-.18.34Q48.2 0 48 0h-4.56q-.2 0-.32-.14t-.08-.34l2.76-22.48q.08-.2-.16-.2H41q-.44 0-.44-.48l.48-3.88q.04-.2.18-.34.14-.14.34-.14h15.4ZM68.52 0q-.4 0-.48-.4L66.4-11.44q-.08-.16-.2-.16h-1.28q-.24 0-.24.2L63.36-.48q-.04.2-.2.34T62.8 0h-4.52q-.2 0-.32-.14t-.08-.34l3.32-27.08q.04-.2.18-.34.14-.14.34-.14h7.84q2.92 0 4.62 1.9 1.7 1.9 1.7 5.06 0 .96-.08 1.48-.28 2.32-1.36 4.14-1.08 1.82-2.8 2.86-.08.04-.12.1-.04.06 0 .14l2.12 11.8v.08q0 .2-.14.34t-.34.14h-4.64Zm-2.2-23.16q-.2 0-.2.2l-.84 6.8q-.08.2.16.2h1.76q1.32 0 2.24-1.18.92-1.18.92-3.14 0-1.36-.62-2.12t-1.66-.76h-1.76Z"/>
  </svg>
</svg>
